# xmcd
#
# Track frame offsets:
#	150
#	17182
#	34432
#	53488
#	71648
#	89940
#	108206
#	126903
#	148060
#	165014
#	187856
#	209697
#	230034
#	258286
#
# Disc length: 3472 seconds
#
# Revision: 1
# Processed by: cddbd v1.5.1PL2 Copyright (c) Steve Scherf et al.
# Submitted via: audiograbber 1.83.01
#
DISCID=c90d8e0e
DTITLE=Terry Kelly - The Power of the Dream
DYEAR=2002
DGENRE=Country
TTITLE0=You Have All of Me
TTITLE1=You Can Start Again
TTITLE2=Miracles Happen
TTITLE3=God Bless Angela's Ashes
TTITLE4=Tribute
TTITLE5=The Power of the Dream
TTITLE6=In The Garden
TTITLE7=A Pittance of Time
TTITLE8=Guardian Angel
TTITLE9=The Changing of the Guard
TTITLE10=Hold On to Me
TTITLE11=Ties That Bind
TTITLE12=Safe Home
TTITLE13=Data Track
EXTD=
EXTT0=
EXTT1=
EXTT2=
EXTT3=
EXTT4=
EXTT5=
EXTT6=
EXTT7=
EXTT8=
EXTT9=
EXTT10=
EXTT11=
EXTT12=
EXTT13=
PLAYORDER=
